<svg xmlns="http://www.w3.org/2000/svg" viewBox="0 0 24 24" id="steve"><path fill="#fff" d="M19.5 10.5V4l-8-3.5-8 3.5v6.5h-2v4l2 1V19l8 4.5 8-4.5v-3.5l2-1v-4z"></path><path fill="none" stroke="#cce7ff" stroke-linecap="round" stroke-linejoin="round" stroke-miterlimit="10" d="M5.5 5.3l2-.8"></path><path fill="#cce7ff" d="M13.9 3.1L11.5 2 9.1 3.1 8 2l3.5 3.5L15 2zM15 17.5l-3.5-2-3.5 2L3.5 15v4l8 4.5 8-4.5v-4zM10.5 10v2L9 13.5H7L5.5 12zM17.5 10v2L16 13.5h-2L12.5 12z"></path><path fill="none" stroke="#1078ff" stroke-linecap="round" stroke-linejoin="round" stroke-miterlimit="10" d="M3.5 10.5h-2v4l2 1M19.5 10.5h2v4l-2 1M10.5 10.5h2M3.5 15L8 17.5l3.5-2 3.5 2 4.5-2.5M10.5 18.5h2"></path><path fill="none" stroke="#1078ff" stroke-linecap="round" stroke-linejoin="round" stroke-miterlimit="10" d="M19.5 19l-8 4.5-8-4.5V4l8-3.5 8 3.5z"></path><path fill="none" stroke="#1078ff" stroke-linecap="round" stroke-linejoin="round" stroke-miterlimit="10" d="M7 13.5L5.5 12v-2L7 8.5h2l1.5 1.5v2L9 13.5zM14 13.5L12.5 12v-2L14 8.5h2l1.5 1.5v2L16 13.5zM15 2l-3.5 3.5L8 2 11.5.5z"></path><path fill="none" d="M0 0h24v24H0z"></path></svg>